<svg width="26" height="26" viewBox="0 0 26 26" fill="none" xmlns="http://www.w3.org/2000/svg">
<path d="M13.0002 0.200195C5.9314 0.200195 0.200195 5.9314 0.200195 13.0002C0.200195 20.069 5.9314 25.8002 13.0002 25.8002C20.069 25.8002 25.8002 20.069 25.8002 13.0002C25.8002 5.9314 20.069 0.200195 13.0002 0.200195ZM19.8951 10.3709C19.9015 10.5127 19.9047 10.6535 19.9047 10.7943C19.9047 15.1335 16.6034 20.1341 10.565 20.1341C8.71006 20.1341 6.98526 19.5911 5.53353 18.6589C5.7906 18.6898 6.05193 18.7037 6.31753 18.7037C7.85673 18.7037 9.27113 18.1799 10.3933 17.2978C8.95646 17.2711 7.74366 16.3218 7.3266 15.0183C7.52713 15.0567 7.733 15.077 7.9442 15.077C8.24393 15.077 8.53513 15.0365 8.80926 14.9618C7.3074 14.661 6.17566 13.3341 6.17566 11.7437C6.17566 11.7298 6.17566 11.7159 6.17566 11.7021C6.61833 11.9485 7.12393 12.0957 7.6626 12.1127C6.7826 11.525 6.20233 10.5191 6.20233 9.381C6.20233 8.77833 6.3634 8.21406 6.64606 7.73086C8.26526 9.717 10.6845 11.0247 13.4119 11.1613C13.3565 10.9213 13.3277 10.6706 13.3277 10.4135C13.3277 8.60126 14.7975 7.13033 16.6098 7.13033C17.5538 7.13033 18.4071 7.52926 19.0055 8.16713C19.7533 8.01886 20.4562 7.74686 21.0909 7.37033C20.8455 8.13726 20.325 8.7794 19.6466 9.18686C20.3101 9.10793 20.9426 8.93193 21.5325 8.6706C21.0941 9.3298 20.5383 9.90686 19.8951 10.3709Z" fill="#FBFBFD"/>
</svg>
