<svg width="26" height="26" viewBox="0 0 26 26" fill="none" xmlns="http://www.w3.org/2000/svg">
<path d="M13.0002 0.200195C5.9314 0.200195 0.200195 5.9314 0.200195 13.0002C0.200195 20.069 5.9314 25.8002 13.0002 25.8002C20.069 25.8002 25.8002 20.069 25.8002 13.0002C25.8002 5.9314 20.069 0.200195 13.0002 0.200195ZM8.19593 5.9634C9.09406 5.9634 9.69246 6.5618 9.69246 7.35966C9.69246 8.15753 9.09406 8.75593 8.09673 8.75593C7.1986 8.757 6.6002 8.15753 6.6002 7.35966C6.6002 6.5618 7.1986 5.9634 8.19593 5.9634ZM9.8002 18.3335H6.6002V9.8002H9.8002V18.3335ZM20.4669 18.3335H17.4546V13.6701C17.4546 12.3805 16.6514 12.0829 16.3506 12.0829C16.0498 12.0829 15.045 12.2813 15.045 13.6701C15.045 13.8685 15.045 18.3335 15.045 18.3335H11.9335V9.8002H15.0461V10.9906C15.4471 10.2962 16.2503 9.8002 17.7565 9.8002C19.2626 9.8002 20.4669 10.9906 20.4669 13.6701V18.3335Z" fill="#FBFBFD"/>
</svg>
