<svg width="26" height="26" viewBox="0 0 26 26" fill="none" xmlns="http://www.w3.org/2000/svg">
<path d="M13.0002 0.200195C5.9314 0.200195 0.200195 5.9314 0.200195 13.0002C0.200195 20.069 5.9314 25.8002 13.0002 25.8002C20.069 25.8002 25.8002 20.069 25.8002 13.0002C25.8002 5.9314 20.069 0.200195 13.0002 0.200195ZM8.73353 6.59186H14.6002C17.2509 6.59186 19.4002 8.7412 19.4002 11.3919C19.4002 14.0425 17.2509 16.1919 14.6002 16.1919H11.4002V19.4002H8.73353V6.6002V6.59186ZM11.4002 9.25853V13.5252H14.6002C15.7767 13.5252 16.7335 12.5684 16.7335 11.3919C16.7335 10.2153 15.7767 9.25853 14.6002 9.25853H11.4002Z" fill="#FBFBFD"/>
</svg>
