<svg width="133" height="51" viewBox="0 0 133 51" fill="none" xmlns="http://www.w3.org/2000/svg">
<g clip-path="url(#clip0)">
<path d="M28.4928 8.14201C29.1873 6.46522 31.1097 5.66896 32.7864 6.3635C34.4632 7.05805 35.2595 8.9804 34.5649 10.6572L21.6021 41.9523C20.9076 43.629 18.9852 44.4253 17.3084 43.7308C15.6316 43.0362 14.8354 41.1139 15.5299 39.4371L28.4928 8.14201Z" fill="white"/>
<path d="M37.431 14.3069C37.9653 13.0171 39.444 12.4046 40.7339 12.9388C42.0237 13.4731 42.6362 14.9518 42.1019 16.2416L30.8804 43.3329C30.3461 44.6227 28.8674 45.2353 27.5775 44.701C26.2877 44.1667 25.6752 42.688 26.2095 41.3982L37.431 14.3069Z" fill="white"/>
<path d="M19.2145 6.76136C19.7488 5.47152 21.2275 4.85901 22.5173 5.39328C23.8072 5.92755 24.4197 7.40628 23.8854 8.69611L12.6638 35.7874C12.1296 37.0772 10.6508 37.6897 9.361 37.1555C8.07116 36.6212 7.45866 35.1425 7.99292 33.8526L19.2145 6.76136Z" fill="white"/>
<path d="M41.4371 28.4158C41.8378 27.4484 42.9469 26.989 43.9142 27.3897C44.8816 27.7904 45.341 28.8995 44.9403 29.8668L42.5218 35.7055C42.1211 36.6728 41.0121 37.1322 40.0447 36.7315C39.0773 36.3308 38.618 35.2218 39.0187 34.2544L41.4371 28.4158Z" fill="white"/>
<path d="M7.57302 14.3888C7.97372 13.4214 9.08277 12.962 10.0501 13.3627C11.0175 13.7634 11.4769 14.8725 11.0762 15.8399L8.65776 21.6785C8.25706 22.6459 7.14801 23.1053 6.18064 22.7046C5.21326 22.3039 4.75388 21.1948 5.15458 20.2274L7.57302 14.3888Z" fill="white"/>
<path d="M65.2104 15.1488C59.5438 15.1488 55.2236 19.497 55.2236 25.2197C55.2236 30.9705 59.5438 35.3468 65.2104 35.3468C70.8771 35.3468 75.1691 30.9705 75.1691 25.2197C75.1691 19.497 70.8771 15.1488 65.2104 15.1488ZM65.2104 18.3468C68.9414 18.3468 71.8028 21.3204 71.8028 25.2197C71.8028 29.1471 68.9414 32.1487 65.2104 32.1487C61.4513 32.1487 58.618 29.1471 58.618 25.2197C58.618 21.3204 61.4513 18.3468 65.2104 18.3468Z" fill="white"/>
<path d="M84.6514 21.0679C82.828 21.0679 81.3692 21.9656 80.4996 23.5085V21.3484H77.3857V35.0662H80.4996V27.6323C80.4996 25.4722 81.8461 24.0696 83.894 24.0696C85.8857 24.0696 87.2042 25.4722 87.2042 27.6323V35.0662H90.3461V27.2395C90.3461 23.4243 88.158 21.0679 84.6514 21.0679Z" fill="white"/>
<path d="M99.4661 35.3468C102.804 35.3468 105.694 33.1586 106.058 30.0448H102.86C102.524 31.4194 101.093 32.3451 99.4661 32.3451C97.1938 32.3451 95.4545 30.5497 95.4545 28.2214C95.4545 25.8649 97.1938 24.0696 99.4661 24.0696C101.093 24.0696 102.496 24.9953 102.832 26.2577H106.03C105.61 23.2841 102.776 21.0679 99.4661 21.0679C95.4545 21.0679 92.3687 24.1537 92.3687 28.2214C92.3687 32.289 95.4545 35.3468 99.4661 35.3468Z" fill="white"/>
<path d="M109.668 14.9805C108.574 14.9805 107.676 15.9062 107.676 16.9722C107.676 18.0943 108.574 18.992 109.668 18.992C110.762 18.992 111.688 18.0943 111.688 16.9722C111.688 15.9062 110.762 14.9805 109.668 14.9805ZM108.097 21.3484V35.0662H111.211V21.3484H108.097Z" fill="white"/>
<path d="M127.019 27.9128C127.019 23.9012 124.017 21.0679 120.314 21.0679C116.359 21.0679 113.245 24.1537 113.245 28.1372C113.245 32.2329 116.359 35.3468 120.37 35.3468C123.737 35.3468 126.346 33.4392 126.851 30.5497H123.709C123.428 31.7279 122.11 32.5134 120.427 32.5134C118.098 32.5134 116.667 31.1388 116.359 28.9507H126.935C126.991 28.6702 127.019 28.2775 127.019 27.9128ZM116.471 26.5662C116.948 24.7989 118.294 23.6488 120.146 23.6488C122.026 23.6488 123.428 24.855 123.625 26.5662H116.471Z" fill="white"/>
</g>
<defs>
<clipPath id="clip0">
<path d="M0 0H133V50.0942H0V0Z" fill="white"/>
</clipPath>
</defs>
</svg>
