<svg width="51" height="51" viewBox="0 0 51 51" fill="none" xmlns="http://www.w3.org/2000/svg">
<path d="M28.4924 8.14201C29.1869 6.46522 31.1093 5.66896 32.7861 6.3635C34.4629 7.05805 35.2591 8.9804 34.5646 10.6572L21.6017 41.9523C20.9072 43.629 18.9848 44.4253 17.3081 43.7308C15.6313 43.0362 14.835 41.1139 15.5296 39.4371L28.4924 8.14201Z" fill="white"/>
<path d="M37.4307 14.3069C37.9649 13.0171 39.4437 12.4046 40.7335 12.9388C42.0233 13.4731 42.6358 14.9518 42.1016 16.2416L30.88 43.3329C30.3457 44.6227 28.867 45.2353 27.5772 44.701C26.2873 44.1667 25.6748 42.688 26.2091 41.3982L37.4307 14.3069Z" fill="white"/>
<path d="M19.2141 6.76136C19.7484 5.47152 21.2271 4.85901 22.517 5.39328C23.8068 5.92755 24.4193 7.40628 23.885 8.69611L12.6635 35.7874C12.1292 37.0772 10.6505 37.6897 9.36063 37.1555C8.0708 36.6212 7.45829 35.1425 7.99256 33.8526L19.2141 6.76136Z" fill="white"/>
<path d="M41.4367 28.4158C41.8374 27.4484 42.9465 26.989 43.9139 27.3897C44.8812 27.7904 45.3406 28.8995 44.9399 29.8668L42.5215 35.7055C42.1208 36.6728 41.0117 37.1322 40.0444 36.7315C39.077 36.3308 38.6176 35.2218 39.0183 34.2544L41.4367 28.4158Z" fill="white"/>
<path d="M7.57265 14.3888C7.97336 13.4214 9.0824 12.962 10.0498 13.3627C11.0172 13.7634 11.4765 14.8725 11.0758 15.8399L8.65739 21.6785C8.25669 22.6459 7.14765 23.1053 6.18027 22.7046C5.21289 22.3039 4.75351 21.1948 5.15421 20.2274L7.57265 14.3888Z" fill="white"/>
</svg>
