<svg width="148" height="148" viewBox="0 0 148 148" fill="none" xmlns="http://www.w3.org/2000/svg">
<circle cx="5.51902" cy="6.08201" r="5.51902" fill="#FFE2C8"/>
<circle cx="5.51902" cy="25.3984" r="5.51902" fill="#FFE2C8"/>
<circle cx="5.51902" cy="44.7153" r="5.51902" fill="#FFE2C8"/>
<circle cx="5.51902" cy="64.0317" r="5.51902" fill="#FFE2C8"/>
<circle cx="5.51902" cy="84.2681" r="5.51902" fill="#FFE2C8"/>
<circle cx="5.51902" cy="103.585" r="5.51902" fill="#FFE2C8"/>
<circle cx="5.51902" cy="122.901" r="5.51902" fill="#FFE2C8"/>
<circle cx="5.51902" cy="142.218" r="5.51902" fill="#FFE2C8"/>
<circle cx="24.8364" cy="6.08201" r="5.51902" fill="#FFE2C8"/>
<circle cx="24.8364" cy="25.3984" r="5.51902" fill="#FFE2C8"/>
<circle cx="24.8364" cy="44.7153" r="5.51902" fill="#FFE2C8"/>
<circle cx="24.8364" cy="64.0317" r="5.51902" fill="#FFE2C8"/>
<circle cx="24.8364" cy="84.2681" r="5.51902" fill="#FFE2C8"/>
<circle cx="24.8364" cy="103.585" r="5.51902" fill="#FFE2C8"/>
<circle cx="24.8364" cy="122.901" r="5.51902" fill="#FFE2C8"/>
<circle cx="24.8364" cy="142.218" r="5.51902" fill="#FFE2C8"/>
<circle cx="44.1518" cy="6.08201" r="5.51902" fill="#FFE2C8"/>
<circle cx="44.1518" cy="25.3984" r="5.51902" fill="#FFE2C8"/>
<circle cx="44.1518" cy="44.7153" r="5.51902" fill="#FFE2C8"/>
<circle cx="44.1518" cy="64.0317" r="5.51902" fill="#FFE2C8"/>
<circle cx="44.1518" cy="84.2681" r="5.51902" fill="#FFE2C8"/>
<circle cx="44.1518" cy="103.585" r="5.51902" fill="#FFE2C8"/>
<circle cx="44.1518" cy="122.901" r="5.51902" fill="#FFE2C8"/>
<circle cx="44.1518" cy="142.218" r="5.51902" fill="#FFE2C8"/>
<circle cx="63.4692" cy="6.08201" r="5.51902" fill="#FFE2C8"/>
<circle cx="63.4692" cy="25.3984" r="5.51902" fill="#FFE2C8"/>
<circle cx="63.4692" cy="44.7153" r="5.51902" fill="#FFE2C8"/>
<circle cx="63.4692" cy="64.0317" r="5.51902" fill="#FFE2C8"/>
<circle cx="63.4692" cy="84.2681" r="5.51902" fill="#FFE2C8"/>
<circle cx="63.4692" cy="103.585" r="5.51902" fill="#FFE2C8"/>
<circle cx="63.4692" cy="122.901" r="5.51902" fill="#FFE2C8"/>
<circle cx="63.4692" cy="142.218" r="5.51902" fill="#FFE2C8"/>
<circle cx="83.7056" cy="6.08201" r="5.51902" fill="#FFE2C8"/>
<circle cx="83.7056" cy="25.3984" r="5.51902" fill="#FFE2C8"/>
<circle cx="83.7056" cy="44.7153" r="5.51902" fill="#FFE2C8"/>
<circle cx="83.7056" cy="64.0317" r="5.51902" fill="#FFE2C8"/>
<circle cx="83.7056" cy="84.2681" r="5.51902" fill="#FFE2C8"/>
<circle cx="83.7056" cy="103.585" r="5.51902" fill="#FFE2C8"/>
<circle cx="83.7056" cy="122.901" r="5.51902" fill="#FFE2C8"/>
<circle cx="83.7056" cy="142.218" r="5.51902" fill="#FFE2C8"/>
<circle cx="103.021" cy="6.08201" r="5.51902" fill="#FFE2C8"/>
<circle cx="103.021" cy="25.3984" r="5.51902" fill="#FFE2C8"/>
<circle cx="103.021" cy="44.7153" r="5.51902" fill="#FFE2C8"/>
<circle cx="103.021" cy="64.0317" r="5.51902" fill="#FFE2C8"/>
<circle cx="103.021" cy="84.2681" r="5.51902" fill="#FFE2C8"/>
<circle cx="103.021" cy="103.585" r="5.51902" fill="#FFE2C8"/>
<circle cx="103.021" cy="122.901" r="5.51902" fill="#FFE2C8"/>
<circle cx="103.021" cy="142.218" r="5.51902" fill="#FFE2C8"/>
<circle cx="122.338" cy="6.08201" r="5.51902" fill="#FFE2C8"/>
<circle cx="122.338" cy="25.3984" r="5.51902" fill="#FFE2C8"/>
<circle cx="122.338" cy="44.7153" r="5.51902" fill="#FFE2C8"/>
<circle cx="122.338" cy="64.0317" r="5.51902" fill="#FFE2C8"/>
<circle cx="122.338" cy="84.2681" r="5.51902" fill="#FFE2C8"/>
<circle cx="122.338" cy="103.585" r="5.51902" fill="#FFE2C8"/>
<circle cx="122.338" cy="122.901" r="5.51902" fill="#FFE2C8"/>
<circle cx="122.338" cy="142.218" r="5.51902" fill="#FFE2C8"/>
<circle cx="141.655" cy="6.08201" r="5.51902" fill="#FFE2C8"/>
<circle cx="141.655" cy="25.3984" r="5.51902" fill="#FFE2C8"/>
<circle cx="141.655" cy="44.7153" r="5.51902" fill="#FFE2C8"/>
<circle cx="141.655" cy="64.0317" r="5.51902" fill="#FFE2C8"/>
<circle cx="141.655" cy="84.2681" r="5.51902" fill="#FFE2C8"/>
<circle cx="141.655" cy="103.585" r="5.51902" fill="#FFE2C8"/>
<circle cx="141.655" cy="122.901" r="5.51902" fill="#FFE2C8"/>
<circle cx="141.655" cy="142.218" r="5.51902" fill="#FFE2C8"/>
</svg>
