<svg width="138" height="369" viewBox="0 0 138 369" fill="none" xmlns="http://www.w3.org/2000/svg">
<g clip-path="url(#clip0)">
<circle cx="6" cy="363" r="6" transform="rotate(-90 6 363)" fill="#FFE2C8"/>
<circle cx="27" cy="363" r="6" transform="rotate(-90 27 363)" fill="#FFE2C8"/>
<circle cx="48" cy="363" r="6" transform="rotate(-90 48 363)" fill="#FFE2C8"/>
<circle cx="69" cy="363" r="6" transform="rotate(-90 69 363)" fill="#FFE2C8"/>
<circle cx="90" cy="363" r="6" transform="rotate(-90 90 363)" fill="#FFE2C8"/>
<circle cx="111" cy="363" r="6" transform="rotate(-90 111 363)" fill="#FFE2C8"/>
<circle cx="132" cy="363" r="6" transform="rotate(-90 132 363)" fill="#FFE2C8"/>
</g>
<g clip-path="url(#clip1)">
<circle cx="6" cy="342" r="6" transform="rotate(-90 6 342)" fill="#FFE2C8"/>
<circle cx="27" cy="342" r="6" transform="rotate(-90 27 342)" fill="#FFE2C8"/>
<circle cx="48" cy="342" r="6" transform="rotate(-90 48 342)" fill="#FFE2C8"/>
<circle cx="69" cy="342" r="6" transform="rotate(-90 69 342)" fill="#FFE2C8"/>
<circle cx="90" cy="342" r="6" transform="rotate(-90 90 342)" fill="#FFE2C8"/>
<circle cx="111" cy="342" r="6" transform="rotate(-90 111 342)" fill="#FFE2C8"/>
<circle cx="132" cy="342" r="6" transform="rotate(-90 132 342)" fill="#FFE2C8"/>
</g>
<g clip-path="url(#clip2)">
<circle cx="6" cy="321" r="6" transform="rotate(-90 6 321)" fill="#FFE2C8"/>
<circle cx="27" cy="321" r="6" transform="rotate(-90 27 321)" fill="#FFE2C8"/>
<circle cx="48" cy="321" r="6" transform="rotate(-90 48 321)" fill="#FFE2C8"/>
<circle cx="69" cy="321" r="6" transform="rotate(-90 69 321)" fill="#FFE2C8"/>
<circle cx="90" cy="321" r="6" transform="rotate(-90 90 321)" fill="#FFE2C8"/>
<circle cx="111" cy="321" r="6" transform="rotate(-90 111 321)" fill="#FFE2C8"/>
<circle cx="132" cy="321" r="6" transform="rotate(-90 132 321)" fill="#FFE2C8"/>
</g>
<g clip-path="url(#clip3)">
<circle cx="6" cy="300" r="6" transform="rotate(-90 6 300)" fill="#FFE2C8"/>
<circle cx="27" cy="300" r="6" transform="rotate(-90 27 300)" fill="#FFE2C8"/>
<circle cx="48" cy="300" r="6" transform="rotate(-90 48 300)" fill="#FFE2C8"/>
<circle cx="69" cy="300" r="6" transform="rotate(-90 69 300)" fill="#FFE2C8"/>
<circle cx="90" cy="300" r="6" transform="rotate(-90 90 300)" fill="#FFE2C8"/>
<circle cx="111" cy="300" r="6" transform="rotate(-90 111 300)" fill="#FFE2C8"/>
<circle cx="132" cy="300" r="6" transform="rotate(-90 132 300)" fill="#FFE2C8"/>
</g>
<g clip-path="url(#clip4)">
<circle cx="6" cy="279" r="6" transform="rotate(-90 6 279)" fill="#FFE2C8"/>
<circle cx="27" cy="279" r="6" transform="rotate(-90 27 279)" fill="#FFE2C8"/>
<circle cx="48" cy="279" r="6" transform="rotate(-90 48 279)" fill="#FFE2C8"/>
<circle cx="69" cy="279" r="6" transform="rotate(-90 69 279)" fill="#FFE2C8"/>
<circle cx="90" cy="279" r="6" transform="rotate(-90 90 279)" fill="#FFE2C8"/>
<circle cx="111" cy="279" r="6" transform="rotate(-90 111 279)" fill="#FFE2C8"/>
<circle cx="132" cy="279" r="6" transform="rotate(-90 132 279)" fill="#FFE2C8"/>
</g>
<g clip-path="url(#clip5)">
<circle cx="6" cy="258" r="6" transform="rotate(-90 6 258)" fill="#FFE2C8"/>
<circle cx="27" cy="258" r="6" transform="rotate(-90 27 258)" fill="#FFE2C8"/>
<circle cx="48" cy="258" r="6" transform="rotate(-90 48 258)" fill="#FFE2C8"/>
<circle cx="69" cy="258" r="6" transform="rotate(-90 69 258)" fill="#FFE2C8"/>
<circle cx="90" cy="258" r="6" transform="rotate(-90 90 258)" fill="#FFE2C8"/>
<circle cx="111" cy="258" r="6" transform="rotate(-90 111 258)" fill="#FFE2C8"/>
<circle cx="132" cy="258" r="6" transform="rotate(-90 132 258)" fill="#FFE2C8"/>
</g>
<g clip-path="url(#clip6)">
<circle cx="6" cy="237" r="6" transform="rotate(-90 6 237)" fill="#FFE2C8"/>
<circle cx="27" cy="237" r="6" transform="rotate(-90 27 237)" fill="#FFE2C8"/>
<circle cx="48" cy="237" r="6" transform="rotate(-90 48 237)" fill="#FFE2C8"/>
<circle cx="69" cy="237" r="6" transform="rotate(-90 69 237)" fill="#FFE2C8"/>
<circle cx="90" cy="237" r="6" transform="rotate(-90 90 237)" fill="#FFE2C8"/>
<circle cx="111" cy="237" r="6" transform="rotate(-90 111 237)" fill="#FFE2C8"/>
<circle cx="132" cy="237" r="6" transform="rotate(-90 132 237)" fill="#FFE2C8"/>
</g>
<g clip-path="url(#clip7)">
<circle cx="6" cy="216" r="6" transform="rotate(-90 6 216)" fill="#FFE2C8"/>
<circle cx="27" cy="216" r="6" transform="rotate(-90 27 216)" fill="#FFE2C8"/>
<circle cx="48" cy="216" r="6" transform="rotate(-90 48 216)" fill="#FFE2C8"/>
<circle cx="69" cy="216" r="6" transform="rotate(-90 69 216)" fill="#FFE2C8"/>
<circle cx="90" cy="216" r="6" transform="rotate(-90 90 216)" fill="#FFE2C8"/>
<circle cx="111" cy="216" r="6" transform="rotate(-90 111 216)" fill="#FFE2C8"/>
<circle cx="132" cy="216" r="6" transform="rotate(-90 132 216)" fill="#FFE2C8"/>
</g>
<g clip-path="url(#clip8)">
<circle cx="6" cy="195" r="6" transform="rotate(-90 6 195)" fill="#FFE2C8"/>
<circle cx="27" cy="195" r="6" transform="rotate(-90 27 195)" fill="#FFE2C8"/>
<circle cx="48" cy="195" r="6" transform="rotate(-90 48 195)" fill="#FFE2C8"/>
<circle cx="69" cy="195" r="6" transform="rotate(-90 69 195)" fill="#FFE2C8"/>
<circle cx="90" cy="195" r="6" transform="rotate(-90 90 195)" fill="#FFE2C8"/>
<circle cx="111" cy="195" r="6" transform="rotate(-90 111 195)" fill="#FFE2C8"/>
<circle cx="132" cy="195" r="6" transform="rotate(-90 132 195)" fill="#FFE2C8"/>
</g>
<g clip-path="url(#clip9)">
<circle cx="6" cy="174" r="6" transform="rotate(-90 6 174)" fill="#FFE2C8"/>
<circle cx="27" cy="174" r="6" transform="rotate(-90 27 174)" fill="#FFE2C8"/>
<circle cx="48" cy="174" r="6" transform="rotate(-90 48 174)" fill="#FFE2C8"/>
<circle cx="69" cy="174" r="6" transform="rotate(-90 69 174)" fill="#FFE2C8"/>
<circle cx="90" cy="174" r="6" transform="rotate(-90 90 174)" fill="#FFE2C8"/>
<circle cx="111" cy="174" r="6" transform="rotate(-90 111 174)" fill="#FFE2C8"/>
<circle cx="132" cy="174" r="6" transform="rotate(-90 132 174)" fill="#FFE2C8"/>
</g>
<g clip-path="url(#clip10)">
<circle cx="6" cy="153" r="6" transform="rotate(-90 6 153)" fill="#FFE2C8"/>
<circle cx="27" cy="153" r="6" transform="rotate(-90 27 153)" fill="#FFE2C8"/>
<circle cx="48" cy="153" r="6" transform="rotate(-90 48 153)" fill="#FFE2C8"/>
<circle cx="69" cy="153" r="6" transform="rotate(-90 69 153)" fill="#FFE2C8"/>
<circle cx="90" cy="153" r="6" transform="rotate(-90 90 153)" fill="#FFE2C8"/>
<circle cx="111" cy="153" r="6" transform="rotate(-90 111 153)" fill="#FFE2C8"/>
<circle cx="132" cy="153" r="6" transform="rotate(-90 132 153)" fill="#FFE2C8"/>
</g>
<g clip-path="url(#clip11)">
<circle cx="6" cy="132" r="6" transform="rotate(-90 6 132)" fill="#FFE2C8"/>
<circle cx="27" cy="132" r="6" transform="rotate(-90 27 132)" fill="#FFE2C8"/>
<circle cx="48" cy="132" r="6" transform="rotate(-90 48 132)" fill="#FFE2C8"/>
<circle cx="69" cy="132" r="6" transform="rotate(-90 69 132)" fill="#FFE2C8"/>
<circle cx="90" cy="132" r="6" transform="rotate(-90 90 132)" fill="#FFE2C8"/>
<circle cx="111" cy="132" r="6" transform="rotate(-90 111 132)" fill="#FFE2C8"/>
<circle cx="132" cy="132" r="6" transform="rotate(-90 132 132)" fill="#FFE2C8"/>
</g>
<g clip-path="url(#clip12)">
<circle cx="6" cy="111" r="6" transform="rotate(-90 6 111)" fill="#FFE2C8"/>
<circle cx="27" cy="111" r="6" transform="rotate(-90 27 111)" fill="#FFE2C8"/>
<circle cx="48" cy="111" r="6" transform="rotate(-90 48 111)" fill="#FFE2C8"/>
<circle cx="69" cy="111" r="6" transform="rotate(-90 69 111)" fill="#FFE2C8"/>
<circle cx="90" cy="111" r="6" transform="rotate(-90 90 111)" fill="#FFE2C8"/>
<circle cx="111" cy="111" r="6" transform="rotate(-90 111 111)" fill="#FFE2C8"/>
<circle cx="132" cy="111" r="6" transform="rotate(-90 132 111)" fill="#FFE2C8"/>
</g>
<g clip-path="url(#clip13)">
<circle cx="6" cy="90" r="6" transform="rotate(-90 6 90)" fill="#FFE2C8"/>
<circle cx="27" cy="90" r="6" transform="rotate(-90 27 90)" fill="#FFE2C8"/>
<circle cx="48" cy="90" r="6" transform="rotate(-90 48 90)" fill="#FFE2C8"/>
<circle cx="69" cy="90" r="6" transform="rotate(-90 69 90)" fill="#FFE2C8"/>
<circle cx="90" cy="90" r="6" transform="rotate(-90 90 90)" fill="#FFE2C8"/>
<circle cx="111" cy="90" r="6" transform="rotate(-90 111 90)" fill="#FFE2C8"/>
<circle cx="132" cy="90" r="6" transform="rotate(-90 132 90)" fill="#FFE2C8"/>
</g>
<g clip-path="url(#clip14)">
<circle cx="6" cy="69" r="6" transform="rotate(-90 6 69)" fill="#FFE2C8"/>
<circle cx="27" cy="69" r="6" transform="rotate(-90 27 69)" fill="#FFE2C8"/>
<circle cx="48" cy="69" r="6" transform="rotate(-90 48 69)" fill="#FFE2C8"/>
<circle cx="69" cy="69" r="6" transform="rotate(-90 69 69)" fill="#FFE2C8"/>
<circle cx="90" cy="69" r="6" transform="rotate(-90 90 69)" fill="#FFE2C8"/>
<circle cx="111" cy="69" r="6" transform="rotate(-90 111 69)" fill="#FFE2C8"/>
<circle cx="132" cy="69" r="6" transform="rotate(-90 132 69)" fill="#FFE2C8"/>
</g>
<g clip-path="url(#clip15)">
<circle cx="6" cy="48" r="6" transform="rotate(-90 6 48)" fill="#FFE2C8"/>
<circle cx="27" cy="48" r="6" transform="rotate(-90 27 48)" fill="#FFE2C8"/>
<circle cx="48" cy="48" r="6" transform="rotate(-90 48 48)" fill="#FFE2C8"/>
<circle cx="69" cy="48" r="6" transform="rotate(-90 69 48)" fill="#FFE2C8"/>
<circle cx="90" cy="48" r="6" transform="rotate(-90 90 48)" fill="#FFE2C8"/>
<circle cx="111" cy="48" r="6" transform="rotate(-90 111 48)" fill="#FFE2C8"/>
<circle cx="132" cy="48" r="6" transform="rotate(-90 132 48)" fill="#FFE2C8"/>
</g>
<g clip-path="url(#clip16)">
<circle cx="6" cy="27" r="6" transform="rotate(-90 6 27)" fill="#FFE2C8"/>
<circle cx="27" cy="27" r="6" transform="rotate(-90 27 27)" fill="#FFE2C8"/>
<circle cx="48" cy="27" r="6" transform="rotate(-90 48 27)" fill="#FFE2C8"/>
<circle cx="69" cy="27" r="6" transform="rotate(-90 69 27)" fill="#FFE2C8"/>
<circle cx="90" cy="27" r="6" transform="rotate(-90 90 27)" fill="#FFE2C8"/>
<circle cx="111" cy="27" r="6" transform="rotate(-90 111 27)" fill="#FFE2C8"/>
<circle cx="132" cy="27" r="6" transform="rotate(-90 132 27)" fill="#FFE2C8"/>
</g>
<g clip-path="url(#clip17)">
<circle cx="6" cy="6" r="6" transform="rotate(-90 6 6)" fill="#FFE2C8"/>
<circle cx="27" cy="6" r="6" transform="rotate(-90 27 6)" fill="#FFE2C8"/>
<circle cx="48" cy="6" r="6" transform="rotate(-90 48 6)" fill="#FFE2C8"/>
<circle cx="69" cy="6" r="6" transform="rotate(-90 69 6)" fill="#FFE2C8"/>
<circle cx="90" cy="6" r="6" transform="rotate(-90 90 6)" fill="#FFE2C8"/>
<circle cx="111" cy="6" r="6" transform="rotate(-90 111 6)" fill="#FFE2C8"/>
<circle cx="132" cy="6" r="6" transform="rotate(-90 132 6)" fill="#FFE2C8"/>
</g>
<defs>
<clipPath id="clip0">
<rect y="369" width="12" height="138" transform="rotate(-90 0 369)" fill="white"/>
</clipPath>
<clipPath id="clip1">
<rect y="348" width="12" height="138" transform="rotate(-90 0 348)" fill="white"/>
</clipPath>
<clipPath id="clip2">
<rect y="327" width="12" height="138" transform="rotate(-90 0 327)" fill="white"/>
</clipPath>
<clipPath id="clip3">
<rect y="306" width="12" height="138" transform="rotate(-90 0 306)" fill="white"/>
</clipPath>
<clipPath id="clip4">
<rect y="285" width="12" height="138" transform="rotate(-90 0 285)" fill="white"/>
</clipPath>
<clipPath id="clip5">
<rect y="264" width="12" height="138" transform="rotate(-90 0 264)" fill="white"/>
</clipPath>
<clipPath id="clip6">
<rect y="243" width="12" height="138" transform="rotate(-90 0 243)" fill="white"/>
</clipPath>
<clipPath id="clip7">
<rect y="222" width="12" height="138" transform="rotate(-90 0 222)" fill="white"/>
</clipPath>
<clipPath id="clip8">
<rect y="201" width="12" height="138" transform="rotate(-90 0 201)" fill="white"/>
</clipPath>
<clipPath id="clip9">
<rect y="180" width="12" height="138" transform="rotate(-90 0 180)" fill="white"/>
</clipPath>
<clipPath id="clip10">
<rect y="159" width="12" height="138" transform="rotate(-90 0 159)" fill="white"/>
</clipPath>
<clipPath id="clip11">
<rect y="138" width="12" height="138" transform="rotate(-90 0 138)" fill="white"/>
</clipPath>
<clipPath id="clip12">
<rect y="117" width="12" height="138" transform="rotate(-90 0 117)" fill="white"/>
</clipPath>
<clipPath id="clip13">
<rect y="96" width="12" height="138" transform="rotate(-90 0 96)" fill="white"/>
</clipPath>
<clipPath id="clip14">
<rect y="75" width="12" height="138" transform="rotate(-90 0 75)" fill="white"/>
</clipPath>
<clipPath id="clip15">
<rect y="54" width="12" height="138" transform="rotate(-90 0 54)" fill="white"/>
</clipPath>
<clipPath id="clip16">
<rect y="33" width="12" height="138" transform="rotate(-90 0 33)" fill="white"/>
</clipPath>
<clipPath id="clip17">
<rect y="12" width="12" height="138" transform="rotate(-90 0 12)" fill="white"/>
</clipPath>
</defs>
</svg>
